# xmcd
#
# Track frame offsets:
#	225
#	19050
#	40785
#	61563
#	85540
#	100528
#	115070
#	135403
#	153537
#	170802
#	188465
#	202329
#
# Disc length: 2883 seconds
#
# Revision: 1
# Processed by: cddbd v1.5.2PL0 Copyright (c) Steve Scherf et al.
# Submitted via: EZCDAudioConverter 5.1.1.1
#
DISCID=8e0b400c
DTITLE=Hot Water - Wolne od świąt
DYEAR=1995
DGENRE=Blues Rock
TTITLE0=Sprzątnij mnie
TTITLE1=Życie od tyłu
TTITLE2=Fireworks
TTITLE3=I'm the Walrus
TTITLE4=Na szczęście niestety
TTITLE5=Common Things
TTITLE6=Co mi zrobiłaś kobieto
TTITLE7=Tam i tu
TTITLE8=Overdrunk Love
TTITLE9=Propozycja do odrzucenia
TTITLE10=Rita Mae
TTITLE11=Slide by Slide
EXTD=
EXTT0=
EXTT1=
EXTT2=
EXTT3=
EXTT4=
EXTT5=
EXTT6=
EXTT7=
EXTT8=
EXTT9=
EXTT10=
EXTT11=
PLAYORDER=
